<svg xmlns="http://www.w3.org/2000/svg" viewBox="0 0 800 500">
  <!-- 어두운 그라데이션 배경 -->
  <defs>
    <linearGradient id="bgGradient" x1="0%" y1="0%" x2="100%" y2="100%">
      <stop offset="0%" style="stop-color:#0f172a"/>
      <stop offset="100%" style="stop-color:#1e293b"/>
    </linearGradient>
    
    <!-- 말풍선 패턴 -->
    <pattern id="bubblePattern" x="0" y="0" width="200" height="200" patternUnits="userSpaceOnUse">
      <path d="M40 80 A40 40 0 1 1 120 80 L120 120 L90 95 A40 40 0 1 1 40 80" 
            fill="none" 
            stroke="rgba(255,255,255,0.1)" 
            stroke-width="2"/>
    </pattern>
  </defs>
  
  <!-- 배경 -->
  <rect width="100%" height="100%" fill="url(#bgGradient)"/>
  
  <!-- 패턴 오버레이 -->
  <rect width="100%" height="100%" fill="url(#bubblePattern)"/>
  
  <!-- 추상적인 연결선들 -->
  <g opacity="0.15">
    <path d="M100 250 C200 100, 600 400, 700 250" stroke="white" fill="none" stroke-width="2"/>
    <path d="M50 150 C300 200, 500 300, 750 350" stroke="white" fill="none" stroke-width="2"/>
    <path d="M0 400 C200 350, 600 200, 800 100" stroke="white" fill="none" stroke-width="2"/>
  </g>
  
  <!-- 둥근 원형 요소들 -->
  <circle cx="150" cy="150" r="80" fill="rgba(255,255,255,0.03)"/>
  <circle cx="650" cy="350" r="100" fill="rgba(255,255,255,0.02)"/>
  <circle cx="400" cy="200" r="60" fill="rgba(255,255,255,0.01)"/>
</svg>
