<svg width="40" height="40" viewBox="0 0 40 40" fill="none" xmlns="http://www.w3.org/2000/svg">
<path d="M2 32V20C2 15.2261 3.89642 10.6477 7.27208 7.27208C10.6477 3.89642 15.2261 2 20 2C24.7739 2 29.3523 3.89642 32.7279 7.27208C36.1036 10.6477 38 15.2261 38 20V32M38 34C38 35.0609 37.5786 36.0783 36.8284 36.8284C36.0783 37.5786 35.0609 38 34 38H32C30.9391 38 29.9217 37.5786 29.1716 36.8284C28.4214 36.0783 28 35.0609 28 34V28C28 26.9391 28.4214 25.9217 29.1716 25.1716C29.9217 24.4214 30.9391 24 32 24H38V34ZM2 34C2 35.0609 2.42143 36.0783 3.17157 36.8284C3.92172 37.5786 4.93913 38 6 38H8C9.06087 38 10.0783 37.5786 10.8284 36.8284C11.5786 36.0783 12 35.0609 12 34V28C12 26.9391 11.5786 25.9217 10.8284 25.1716C10.0783 24.4214 9.06087 24 8 24H2V34Z" stroke="#EBEDF0" stroke-width="4" stroke-linecap="round" stroke-linejoin="round"/>
</svg>
