<?xml version="1.0" standalone="no"?>
<!DOCTYPE svg PUBLIC "-//W3C//DTD SVG 20010904//EN"
 "http://www.w3.org/TR/2001/REC-SVG-20010904/DTD/svg10.dtd">
<svg version="1.0" xmlns="http://www.w3.org/2000/svg"
 width="1792.000000pt" height="1024.000000pt" viewBox="0 0 1792.000000 1024.000000"
 preserveAspectRatio="xMidYMid meet">

<g transform="translate(0.000000,1024.000000) scale(0.100000,-0.100000)"
fill="#111729" stroke="none">
<path d="M0 5120 l0 -5120 8960 0 8960 0 0 5120 0 5120 -8960 0 -8960 0 0
-5120z m10787 2180 c103 -22 237 -136 278 -236 19 -47 20 -77 23 -614 2 -379
-1 -586 -8 -629 -24 -138 -128 -279 -237 -322 -55 -21 -72 -22 -371 -23 l-313
-2 -63 -65 c-34 -36 -105 -104 -157 -151 -53 -47 -129 -118 -170 -157 -69 -66
-131 -102 -147 -86 -4 4 -10 109 -13 233 -4 125 -7 228 -8 230 0 1 -210 2
-465 2 -303 0 -474 4 -493 11 l-27 10 76 72 c85 80 123 144 142 241 l13 61 79
6 c217 18 363 142 430 365 37 123 12 409 -47 531 -12 25 -48 73 -79 107 -31
33 -69 81 -85 106 -54 88 -160 183 -287 256 -70 40 -84 60 -45 66 63 9 1927
-3 1974 -12z m-2788 -24 c43 -20 48 -40 18 -84 -45 -69 -45 -86 1 -136 69 -75
76 -101 77 -269 l0 -149 28 -24 c35 -30 41 -30 66 2 33 42 44 100 37 194 -9
106 -21 158 -57 239 -37 82 -38 129 -2 172 39 46 96 69 174 69 79 0 156 -23
200 -59 28 -24 33 -35 37 -85 2 -32 10 -60 16 -62 6 -2 38 5 70 16 74 25 119
25 175 0 95 -43 156 -112 169 -192 7 -38 13 -46 52 -66 60 -31 117 -88 131
-131 8 -22 9 -66 5 -123 -5 -77 -3 -94 14 -128 32 -62 28 -126 -11 -221 -27
-64 -44 -91 -85 -128 -61 -55 -156 -97 -241 -106 l-61 -7 -37 75 c-41 84 -98
149 -178 202 -92 61 -145 76 -312 86 -184 10 -257 23 -311 55 -93 53 -117 111
-112 273 3 117 -4 138 -74 196 -29 24 -38 27 -93 23 -65 -5 -185 -57 -248
-109 -113 -93 -127 -345 -30 -539 61 -121 109 -185 166 -223 74 -49 123 -63
292 -82 243 -27 341 -53 407 -105 57 -47 82 -53 112 -29 38 30 34 67 -11 111
-75 73 -183 106 -430 132 -231 25 -270 40 -362 143 -61 68 -106 155 -122 235
-15 73 2 159 41 222 47 74 159 113 233 82 31 -13 37 -19 32 -38 -2 -13 -9 -61
-15 -107 -14 -106 -2 -163 47 -221 69 -81 168 -114 403 -134 171 -15 225 -28
303 -71 90 -51 168 -170 169 -258 1 -70 -58 -184 -121 -234 -117 -93 -251
-106 -401 -39 -153 69 -145 67 -425 76 -208 6 -280 4 -360 -7 -147 -22 -267
-14 -338 20 -109 54 -166 151 -153 261 5 47 2 63 -24 118 -45 96 -56 172 -35
244 18 63 69 124 103 124 23 0 67 -33 84 -63 7 -12 15 -63 18 -113 5 -84 10
-99 57 -197 53 -109 81 -137 134 -137 26 0 69 37 69 59 0 8 -28 42 -63 76 -47
44 -68 73 -80 109 -19 56 -22 122 -7 162 14 37 8 52 -60 135 -69 84 -90 124
-90 168 0 58 49 130 122 175 26 17 27 17 83 -34 43 -39 63 -50 83 -48 37 4 40
36 8 95 -47 88 -49 101 -25 149 26 55 79 99 135 113 72 18 99 14 165 -29 72
-47 110 -51 129 -16 11 22 10 28 -9 52 -28 35 -27 56 5 93 31 37 57 52 104 61
47 9 179 0 209 -14z m-181 -1682 c30 -8 24 -38 -18 -100 -90 -130 -189 -181
-338 -172 -49 3 -95 13 -127 27 -87 38 -169 134 -177 207 l-3 29 130 5 c197 9
507 11 533 4z m268 -35 c23 -11 45 -27 48 -35 6 -15 -60 -106 -120 -167 -16
-16 -35 -41 -44 -55 -9 -15 -30 -41 -46 -58 -16 -17 -51 -59 -79 -94 -57 -73
-96 -100 -145 -100 -40 0 -100 33 -100 54 0 19 19 64 41 97 10 14 47 40 83 59
118 59 179 130 237 273 22 56 25 58 53 53 17 -4 49 -16 72 -27z m-1439 -1024
c159 -50 290 -157 333 -272 49 -130 54 -272 15 -389 -28 -83 -43 -110 -93
-169 -69 -81 -93 -103 -151 -133 -93 -50 -159 -60 -403 -60 l-218 1 0 523 0
524 219 0 c206 0 225 -2 298 -25z m3316 9 c165 -43 246 -127 247 -257 0 -86
-52 -182 -118 -216 l-37 -19 40 -16 c88 -37 145 -121 145 -216 0 -61 -21 -116
-72 -187 -37 -51 -72 -72 -174 -102 -64 -19 -96 -21 -324 -21 l-253 0 6 158
c4 86 7 322 7 525 l0 367 236 0 c182 0 250 -4 297 -16z m1397 -118 c0 -46 3
-98 7 -116 l6 -33 90 6 89 6 -6 -37 c-3 -20 -6 -64 -6 -96 l0 -59 -87 6 -88 6
5 -178 c5 -173 6 -180 29 -205 29 -31 43 -32 82 -9 37 22 47 13 63 -63 7 -33
16 -66 20 -75 11 -24 -108 -69 -184 -69 -75 0 -99 10 -156 62 -81 75 -84 87
-84 329 l0 212 -55 -6 -55 -6 0 101 c0 99 0 100 23 95 12 -3 36 -8 52 -11 l31
-7 -4 103 -4 103 63 3 c35 2 80 7 99 12 72 17 70 19 70 -74z m-3786 -165 c126
-62 185 -163 194 -334 l5 -98 -255 3 -254 3 14 -38 c9 -21 33 -53 54 -72 35
-32 43 -35 101 -35 64 0 127 22 159 54 16 15 22 13 89 -41 62 -50 69 -59 54
-68 -10 -5 -41 -27 -69 -48 -83 -61 -146 -80 -246 -74 -93 5 -141 22 -215 79
-102 78 -150 185 -149 328 1 107 28 180 91 250 116 129 279 164 427 91z m708
19 c107 -41 197 -130 237 -235 10 -27 21 -88 23 -135 l5 -85 -263 1 c-145 1
-264 -1 -264 -3 0 -22 35 -76 65 -99 28 -21 51 -29 96 -32 86 -6 128 5 164 43
l32 33 74 -70 c71 -68 73 -71 49 -78 -14 -4 -53 -25 -88 -48 -76 -49 -142 -66
-237 -60 -144 9 -274 100 -338 236 -29 61 -32 76 -32 162 1 116 23 181 91 258
104 119 254 162 386 112z m518 -30 c0 -27 3 -50 7 -50 4 0 18 11 32 24 81 77
209 98 309 51 65 -30 141 -105 170 -169 29 -62 47 -184 38 -259 -6 -46 -18
-74 -65 -145 -96 -145 -158 -187 -276 -186 -64 1 -117 22 -173 69 -16 14 -32
25 -35 25 -3 0 -2 -74 1 -165 l5 -165 -109 6 c-60 4 -110 7 -110 8 -1 1 -4
227 -8 504 l-7 502 111 0 110 0 0 -50z m1998 25 c63 -22 137 -83 159 -134 12
-28 17 -92 23 -286 4 -139 13 -262 19 -278 6 -16 11 -39 11 -52 0 -22 -2 -22
-42 -13 -24 5 -71 7 -104 3 l-61 -6 -7 32 c-3 17 -6 43 -6 56 0 25 -1 25 -41
-12 -62 -55 -112 -75 -197 -75 -40 0 -88 6 -106 14 -83 35 -166 147 -166 225
0 45 34 114 71 145 16 13 65 38 109 55 65 25 97 32 168 33 48 1 102 -1 120 -6
30 -7 32 -6 32 20 0 42 -36 91 -77 105 -56 18 -169 7 -236 -24 l-58 -26 -8 22
c-5 12 -12 38 -16 57 -4 19 -14 47 -21 62 -8 15 -14 31 -14 36 0 7 117 47 195
66 42 10 202 -2 253 -19z m1267 4 c149 -56 225 -172 240 -366 l8 -92 -262 3
c-292 3 -266 9 -241 -60 12 -32 66 -72 106 -80 75 -14 224 40 224 81 0 8 1 15
3 15 1 0 35 -31 74 -70 40 -38 66 -70 59 -70 -8 0 -35 -17 -62 -39 -91 -72
-171 -96 -295 -89 -129 7 -246 83 -304 198 -115 226 -23 482 204 571 65 26
175 25 246 -2z"/>
<path d="M9695 6523 c-14 -3 -25 -20 -37 -58 -26 -79 -10 -121 55 -154 59 -29
82 -22 127 40 41 57 39 86 -9 133 -40 39 -82 51 -136 39z"/>
<path d="M10099 6513 c-27 -30 -49 -80 -49 -112 0 -39 39 -84 88 -100 34 -12
44 -11 77 5 44 21 75 66 75 112 0 25 -9 41 -37 67 -21 19 -45 35 -53 35 -8 0
-31 3 -50 6 -27 4 -39 1 -51 -13z"/>
<path d="M10519 6488 c-28 -35 -33 -51 -34 -93 l0 -50 55 -26 c69 -33 117 -29
161 12 29 27 31 33 27 79 -6 56 -27 86 -75 106 -61 26 -96 19 -134 -28z"/>
<path d="M8462 7012 c-44 -47 -52 -89 -45 -251 7 -163 16 -185 75 -179 27 3
36 11 57 53 32 62 60 77 127 71 60 -5 103 -25 138 -63 52 -56 72 -176 41 -250
-15 -35 -14 -39 3 -63 25 -34 49 -36 78 -9 37 35 57 110 52 195 -9 133 -91
254 -207 307 -39 17 -58 19 -138 13 l-93 -6 -11 27 c-6 15 -13 61 -17 102 -4
46 -12 76 -20 79 -7 2 -25 -10 -40 -26z"/>
<path d="M6350 4036 l0 -316 80 0 c135 0 227 28 281 87 52 55 63 90 67 209 4
97 1 117 -18 162 -24 56 -92 125 -144 147 -18 8 -85 17 -149 21 l-117 7 0
-317z"/>
<path d="M9657 4308 c-4 -29 -7 -83 -7 -119 l0 -66 118 4 c131 6 175 20 197
64 25 48 19 87 -19 125 l-34 34 -103 0 c-57 0 -113 3 -125 6 -19 5 -22 0 -27
-48z"/>
<path d="M9668 3933 c-16 -4 -18 -18 -18 -114 l0 -109 109 0 c139 0 165 6 207
45 41 39 46 87 13 129 -37 47 -68 56 -186 55 -59 -1 -116 -3 -125 -6z"/>
<path d="M7333 4100 c-31 -18 -53 -50 -67 -96 -6 -19 -2 -22 40 -29 26 -4 94
-4 151 0 114 8 120 13 88 76 -23 44 -71 69 -130 69 -32 0 -62 -7 -82 -20z"/>
<path d="M8103 4104 c-29 -15 -93 -94 -93 -116 0 -4 74 -8 165 -8 l165 0 -10
25 c-37 96 -141 141 -227 99z"/>
<path d="M8894 4090 c-69 -35 -95 -70 -101 -137 -7 -76 11 -164 40 -191 55
-52 157 -67 214 -32 52 31 77 91 77 185 1 61 -3 87 -17 110 -44 72 -141 102
-213 65z"/>
<path d="M10553 3830 c-49 -20 -59 -96 -17 -129 32 -25 107 -28 157 -7 65 27
104 98 72 130 -13 12 -35 16 -103 15 -48 0 -97 -4 -109 -9z"/>
<path d="M11875 4110 c-29 -11 -62 -50 -79 -91 l-15 -36 106 -7 c58 -3 128 -6
155 -6 45 0 48 2 48 26 0 85 -125 152 -215 114z"/>
</g>
</svg>
