<svg xmlns="http://www.w3.org/2000/svg" viewBox="0 0 400 400">
  <!-- 그라데이션 정의 -->
  <defs>
    <!-- 토마토 본체 그라데이션 -->
    <radialGradient id="tomatoGradient" cx="40%" cy="40%" r="60%">
      <stop offset="0%" style="stop-color:#ff8787"/>
      <stop offset="70%" style="stop-color:#ff6b6b"/>
      <stop offset="100%" style="stop-color:#fa5252"/>
    </radialGradient>
    
    <!-- 잎사귀 그라데이션 -->
    <linearGradient id="leafGradient" x1="0%" y1="0%" x2="100%" y2="100%">
      <stop offset="0%" style="stop-color:#69db7c"/>
      <stop offset="100%" style="stop-color:#37b24d"/>
    </linearGradient>
    
    <!-- 잎사귀 그림자 -->
    <filter id="leafShadow" x="-20%" y="-20%" width="140%" height="140%">
      <feGaussianBlur in="SourceAlpha" stdDeviation="2"/>
      <feOffset dx="2" dy="2" result="offsetblur"/>
      <feComponentTransfer>
        <feFuncA type="linear" slope="0.3"/>
      </feComponentTransfer>
      <feMerge>
        <feMergeNode/>
        <feMergeNode in="SourceGraphic"/>
      </feMerge>
    </filter>
    
    <!-- 3D 효과를 위한 필터 -->
    <filter id="shadow" x="-20%" y="-20%" width="140%" height="140%">
      <feGaussianBlur in="SourceAlpha" stdDeviation="5"/>
      <feOffset dx="3" dy="3" result="offsetblur"/>
      <feComponentTransfer>
        <feFuncA type="linear" slope="0.2"/>
      </feComponentTransfer>
      <feMerge>
        <feMergeNode/>
        <feMergeNode in="SourceGraphic"/>
      </feMerge>
    </filter>
  </defs>
  
  <!-- 그림자 효과가 있는 본체 -->
  <g filter="url(#shadow)">
    <circle cx="200" cy="220" r="120" fill="url(#tomatoGradient)"/>
  </g>
  
  <!-- 토마토 줄기와 잎사귀 -->
  <g filter="url(#leafShadow)">
    <path d="M190 85 C170 70, 150 85, 170 105 C190 125, 210 90, 190 85" fill="url(#leafGradient)"/>
    <path d="M210 80 C230 65, 250 80, 230 100 C210 120, 190 85, 210 80" fill="url(#leafGradient)"/>
    <path d="M200 75 C220 60, 240 75, 220 95 C200 115, 180 80, 200 75" fill="url(#leafGradient)"/>
  </g>
  
  <!-- 3D 효과를 위한 하이라이트 -->
  <ellipse cx="160" cy="160" rx="40" ry="30" fill="#ffa8a8" opacity="0.4"/>
  <ellipse cx="240" cy="160" rx="40" ry="30" fill="#ffa8a8" opacity="0.4"/>
  
  <!-- 눈 (입체적인 버전) -->
  <g>
    <!-- 왼쪽 눈 -->
    <ellipse cx="155" cy="190" rx="30" ry="30" fill="white"/>
    <circle cx="155" cy="190" r="15" fill="#2b2b2b"/>
    <circle cx="160" cy="185" r="6" fill="white"/>
    
    <!-- 오른쪽 눈 -->
    <ellipse cx="245" cy="190" rx="30" ry="30" fill="white"/>
    <circle cx="245" cy="190" r="15" fill="#2b2b2b"/>
    <circle cx="250" cy="185" r="6" fill="white"/>
  </g>
  
  <!-- 볼 -->
  <circle cx="140" cy="235" r="22" fill="#ff8787" opacity="0.5"/>
  <circle cx="260" cy="235" r="22" fill="#ff8787" opacity="0.5"/>
  
  <!-- 입 (부드러운 버전) -->
  <path d="M160 235 C180 265, 220 265, 240 235" fill="#2b2b2b" opacity="0.7"/>
  <path d="M165 238 C185 268, 215 268, 235 238" fill="#ff6b6b"/>
  <path d="M170 245 C190 265, 210 265, 230 245" fill="white" opacity="0.3"/>
  
  <!-- 추가적인 하이라이트 -->
  <circle cx="180" cy="150" r="5" fill="white" opacity="0.4"/>
  <circle cx="220" cy="150" r="5" fill="white" opacity="0.4"/>
  <circle cx="200" cy="160" r="3" fill="white" opacity="0.4"/>
</svg>